<svg data-v-0dd9719b="" version="1.0" xmlns="http://www.w3.org/2000/svg" xmlns:xlink="http://www.w3.org/1999/xlink" width="100%" height="100%" viewBox="0 0 340.000000 250.000000" preserveAspectRatio="xMidYMid meet" color-interpolation-filters="sRGB" style="margin: auto;"> <rect data-v-0dd9719b="" x="0" y="0" width="100%" height="100%" fill="#fff" fill-opacity="1" class="background"></rect> <rect data-v-0dd9719b="" x="0" y="0" width="100%" height="100%" fill="url(#watermark)" fill-opacity="1" class="watermarklayer"></rect> <g data-v-0dd9719b="" fill="#333" class="icon-text-wrapper icon-svg-group iconsvg" transform="translate(46.38499450683594,95.03805160522461)"><g class="iconsvg-imagesvg" transform="translate(0,0)"><g><rect fill="#333" fill-opacity="0" stroke-width="2" x="0" y="0" width="60" height="59.9238966512529" class="image-rect"></rect> <svg x="0" y="0" width="60" height="59.9238966512529" filtersec="colorsb3021364129" class="image-svg-svg primary" style="overflow: visible;"><svg xmlns="http://www.w3.org/2000/svg" viewBox="-0.013412523083388805 0 100.12681579589844 100"><g fill-rule="evenodd"><path d="M50.05 64.56a33.61 33.61 0 0 1-33.61-33.62 2.25 2.25 0 0 1 4.5 0 29.11 29.11 0 0 0 29.11 29.12 9 9 0 1 1 0 18 2.25 2.25 0 1 1 0-4.49 4.5 4.5 0 0 0 3.19-1.33 4.51 4.51 0 0 0-3.19-7.69zm0-12.31a21.31 21.31 0 0 1-2.25-42.5V0a50.05 50.05 0 0 0 0 100v-9.74a21.27 21.27 0 0 1-13.54-6.9 2.24 2.24 0 1 1 3.32-3 17 17 0 0 0 5.66 4.1 16.82 16.82 0 1 0 6.81-32.2z" fill="#0d72ff"></path><path d="M50.05 35.45a33.63 33.63 0 0 1 33.62 33.62 2.25 2.25 0 0 1-4.5 0A29.12 29.12 0 0 0 50.05 40a9 9 0 0 1 0-18 2.25 2.25 0 0 1 0 4.5 4.51 4.51 0 1 0 0 9zm0 12.3a21.32 21.32 0 0 1 2.25 42.51V100a50.05 50.05 0 0 0 0-100v9.75a21.36 21.36 0 0 1 13.55 6.89 2.24 2.24 0 0 1-3.33 3 16.82 16.82 0 1 0-12.47 28.1z" fill="#0daeff"></path></g></svg></svg> <!----></g></g> <g transform="translate(67,14.706948280334473)"><g data-gra="path-name" fill-rule="" class="tp-name iconsvg-namesvg"><g transform="scale(1)"><g><path d="M0.37-29.12L22.59-29.16 22.39-20.51 16.31-20.27 14.76-0.94 6.16-0.49 6.2-19.82 0.12-19.49 0.37-29.12ZM47.62-19.66L47.62-19.66Q47.62-18.07 47.34-16.77 47.06-15.48 46.47-14.4 45.88-13.32 44.94-12.4 44.01-11.48 42.68-10.64L42.68-10.64 47.53-2 38.36-0.2 35.22-8.89 32.69-8.81 32.32-0.33 23.55-0.33Q23.65-4.98 23.75-9.58 23.84-14.19 23.96-18.84L23.96-18.84Q24-21.19 24.04-23.49 24.08-25.8 24.21-28.14L24.21-28.14Q25.63-28.67 27.02-29.02 28.41-29.36 29.8-29.56 31.2-29.75 32.64-29.82 34.07-29.89 35.58-29.89L35.58-29.89Q37.91-29.89 40.08-29.25 42.25-28.61 43.92-27.33 45.6-26.04 46.61-24.12 47.62-22.21 47.62-19.66ZM38.48-19.01L38.48-19.01Q38.48-19.86 38.25-20.58 38.01-21.29 37.55-21.81 37.09-22.33 36.41-22.62 35.73-22.92 34.81-22.92L34.81-22.92Q34.4-22.92 34.01-22.87 33.63-22.82 33.26-22.72L33.26-22.72 32.93-15.13 33.42-15.13Q34.3-15.13 35.21-15.36 36.11-15.58 36.84-16.05 37.56-16.52 38.02-17.25 38.48-17.99 38.48-19.01ZM49.19-28.14L60.03-28.71 57.79-0.94 49.19-0.49 49.19-28.14ZM82.32-10.85L82.32-10.85Q82.32-8.05 81.35-5.96 80.39-3.87 78.7-2.49 77.02-1.1 74.77-0.41 72.51 0.29 69.92 0.29L69.92 0.29Q68.92 0.29 67.73 0.02 66.54-0.24 65.32-0.64 64.09-1.04 62.96-1.5 61.83-1.96 60.95-2.37L60.95-2.37 61.85-10.77Q63.58-9.73 65.69-9.19 67.8-8.65 69.84-8.65L69.84-8.65Q70.23-8.65 70.78-8.68 71.33-8.71 71.83-8.86 72.33-9.01 72.68-9.32 73.02-9.63 73.02-10.2L73.02-10.2Q73.02-10.58 72.78-10.86 72.53-11.13 72.15-11.31 71.76-11.48 71.27-11.57 70.78-11.66 70.31-11.7 69.84-11.75 69.43-11.75 69.03-11.75 68.78-11.75L68.78-11.75Q67.03-11.75 65.59-12.36 64.15-12.97 63.12-14.06 62.09-15.15 61.52-16.65 60.95-18.15 60.95-19.9L60.95-19.9Q60.95-22.31 61.92-24.22 62.89-26.12 64.51-27.46 66.13-28.79 68.23-29.51 70.33-30.22 72.58-30.22L72.58-30.22Q73.57-30.22 74.63-30.15 75.7-30.08 76.75-29.89 77.8-29.71 78.79-29.43 79.79-29.14 80.69-28.71L80.69-28.71 79.92-20.43Q78.53-20.9 77.01-21.22 75.49-21.53 74.04-21.53L74.04-21.53Q73.78-21.53 73.36-21.52 72.94-21.51 72.48-21.46 72.02-21.41 71.56-21.31 71.09-21.21 70.72-21.03 70.35-20.86 70.13-20.58 69.9-20.29 69.92-19.9L69.92-19.9Q69.94-19.45 70.26-19.18 70.58-18.9 71.08-18.75 71.58-18.6 72.18-18.54 72.78-18.48 73.37-18.46 73.96-18.45 74.47-18.46 74.98-18.48 75.31-18.43L75.31-18.43Q76.94-18.33 78.24-17.74 79.55-17.15 80.46-16.17 81.36-15.19 81.84-13.84 82.32-12.48 82.32-10.85ZM82.47-29.12L104.69-29.16 104.49-20.51 98.41-20.27 96.86-0.94 88.26-0.49 88.3-19.82 82.22-19.49 82.47-29.12ZM130.22-14.4L130.22-14.4Q130.22-12.54 129.79-10.82 129.37-9.09 128.56-7.59 127.76-6.08 126.6-4.82 125.45-3.57 124.01-2.67 122.58-1.77 120.88-1.27 119.19-0.77 117.29-0.77L117.29-0.77Q115.46-0.77 113.8-1.24 112.14-1.71 110.69-2.56 109.24-3.41 108.07-4.6 106.89-5.79 106.07-7.25 105.24-8.71 104.78-10.38 104.33-12.05 104.33-13.87L104.33-13.87Q104.33-15.64 104.75-17.34 105.18-19.05 105.99-20.56 106.79-22.06 107.93-23.33 109.08-24.59 110.49-25.51 111.91-26.43 113.56-26.94 115.21-27.45 117.05-27.45L117.05-27.45Q120.01-27.45 122.44-26.53 124.88-25.61 126.6-23.91 128.33-22.21 129.27-19.79 130.22-17.37 130.22-14.4ZM121.17-13.87L121.17-13.87Q121.17-14.74 120.91-15.57 120.66-16.4 120.17-17.04 119.68-17.68 118.96-18.08 118.23-18.48 117.29-18.48L117.29-18.48Q116.34-18.48 115.58-18.13 114.83-17.78 114.29-17.18 113.75-16.58 113.46-15.77 113.18-14.97 113.18-14.07L113.18-14.07Q113.18-13.21 113.42-12.36 113.66-11.5 114.15-10.81 114.64-10.11 115.37-9.69 116.09-9.26 117.05-9.26L117.05-9.26Q118.01-9.26 118.77-9.64 119.54-10.01 120.07-10.65 120.6-11.3 120.88-12.13 121.17-12.97 121.17-13.87ZM149.76-28.92L159.38-29.24 157.92-1.59 147.23-0.61 141.52-15.42 140.62-0.33 131.45-0.33 132.18-29.24 142.38-29.73 149.43-15.05 149.76-28.92ZM161.55-29.41L180.35-29.41Q180.22-27.49 180.12-25.61 180.02-23.74 179.86-21.82L179.86-21.82 171.21-21.37 171.01-18.8 177.08-18.8 176.64-12.48 170.52-12.28 170.31-9.3 175.37-9.3 178.96-9.3Q178.84-7.06 178.71-4.84 178.57-2.63 178.47-0.41L178.47-0.41 160.89 0 161.55-29.41Z" transform="translate(-0.12000000476837158, 30.219999313354492)"></path></g> <!----> <!----> <!----> <!----> <!----> <!----> <!----></g></g> <!----></g></g><defs v-gra="od"></defs></svg>